<svg width="2276" height="758" viewBox="0 0 2276 758" fill="none" xmlns="http://www.w3.org/2000/svg">
<path d="M0 58.8402C-1.79237e-08 31.1026 0 17.2339 7.86987 8.61695C15.7398 1.65042e-06 28.4061 1.54779e-06 53.7389 1.52992e-06L2222.26 0C2247.6 -1.78709e-08 2260.26 0 2268.13 8.61694C2276 17.2339 2276 31.1026 2276 58.8402V699.16C2276 726.898 2276 740.767 2268.13 749.383C2260.26 758 2247.6 758 2222.26 758H53.7389C28.4062 758 15.7398 758 7.86989 749.383C0 740.767 4.31733e-07 726.898 4.13808e-07 699.16L0 58.8402Z" fill="url(#paint0_linear_27_58)"/>
<defs>
<linearGradient id="paint0_linear_27_58" x1="3.95437e-07" y1="1.42347e-06" x2="454.482" y2="1364.64" gradientUnits="userSpaceOnUse">
<stop stop-color="#FF9D6C"/>
<stop offset="1" stop-color="#BB4E75"/>
</linearGradient>
</defs>
</svg>
